<?xml version="1.0" encoding="utf-8"?>
<!-- Generator: Adobe Illustrator 26.0.2, SVG Export Plug-In . SVG Version: 6.00 Build 0)  -->
<svg version="1.1" id="Layer_1" xmlns="http://www.w3.org/2000/svg" xmlns:xlink="http://www.w3.org/1999/xlink" x="0px" y="0px"
	 viewBox="0 0 1034.61 382.21" style="enable-background:new 0 0 1034.61 382.21;" xml:space="preserve">
<style type="text/css">
	.st0{fill:#4DC5DC;}
	.st1{fill:#231F20;}
	.st2{fill:#FAD0CF;stroke:#231F20;stroke-width:4.9669;stroke-miterlimit:10;}
	.st3{clip-path:url(#SVGID_00000038387422067651271550000015051839470007661743_);}
	.st4{fill:#FFFFFF;}
	.st5{fill:#FAD0CF;}
	.st6{fill:none;stroke:#FAD0CF;stroke-width:4.9669;stroke-linecap:round;stroke-miterlimit:10;}
	.st7{fill:none;stroke:#231F20;stroke-width:4.9669;stroke-miterlimit:10;}
</style>
<rect x="0.05" y="0" class="st0" width="1034.56" height="382.21"/>
<g>
	<path class="st1" d="M447.84,154.55h9.31c0.82,0,1.22,0.41,1.22,1.23v83.28c0,0.82-0.41,1.22-1.22,1.22h-9.31
		c-0.82,0-1.22-0.4-1.22-1.22v-36.13c0-0.32-0.17-0.49-0.49-0.49h-18.49c-0.32,0-0.49,0.17-0.49,0.49v36.13
		c0,0.82-0.41,1.22-1.22,1.22h-9.32c-0.82,0-1.22-0.4-1.22-1.22v-83.28c0-0.82,0.4-1.23,1.22-1.23h9.31c0.82,0,1.22,0.41,1.22,1.23
		v36c0,0.32,0.17,0.49,0.49,0.49h18.49c0.32,0,0.49-0.17,0.49-0.49v-36C446.62,154.96,447.02,154.55,447.84,154.55z"/>
	<path class="st1" d="M480.66,235.13c-4.08-4.08-6.12-9.51-6.12-16.28v-42.74c0-6.78,2.04-12.22,6.12-16.35
		c4.08-4.13,9.47-6.19,16.16-6.19c6.78,0,12.22,2.06,16.35,6.19c4.13,4.13,6.19,9.57,6.19,16.35v42.74c0,6.78-2.06,12.2-6.19,16.28
		c-4.13,4.08-9.57,6.12-16.35,6.12C490.13,241.26,484.75,239.21,480.66,235.13z M504.67,227.85c1.96-2.16,2.94-5,2.94-8.51V175.5
		c0-3.51-0.98-6.35-2.94-8.51c-1.96-2.16-4.57-3.24-7.84-3.24c-3.19,0-5.74,1.08-7.65,3.24c-1.92,2.17-2.87,5-2.87,8.51v43.84
		c0,3.51,0.96,6.35,2.87,8.51c1.91,2.17,4.47,3.24,7.65,3.24C500.09,231.09,502.71,230.01,504.67,227.85z"/>
	<path class="st1" d="M538.52,235.2c-3.96-4.04-5.94-9.33-5.94-15.86v-3.19c0-0.82,0.4-1.23,1.23-1.23h9.06
		c0.82,0,1.23,0.41,1.23,1.23v2.57c0,3.76,0.94,6.76,2.82,9c1.88,2.25,4.28,3.37,7.23,3.37c2.94,0,5.37-1.08,7.29-3.24
		c1.91-2.16,2.87-5,2.87-8.51c0-2.37-0.51-4.45-1.53-6.24c-1.02-1.79-2.37-3.41-4.04-4.84c-1.68-1.43-4.38-3.53-8.14-6.31
		c-4.16-3.1-7.43-5.76-9.8-7.96c-2.37-2.2-4.37-4.85-6.01-7.96c-1.63-3.1-2.45-6.73-2.45-10.9c0-6.61,1.96-11.86,5.88-15.74
		c3.91-3.88,9.03-5.82,15.31-5.82c6.53,0,11.78,2.08,15.74,6.24c3.96,4.16,5.94,9.63,5.94,16.41v3.06c0,0.82-0.41,1.23-1.22,1.23
		h-9.06c-0.82,0-1.23-0.4-1.23-1.23v-3.31c0-3.67-0.94-6.63-2.82-8.88c-1.88-2.25-4.33-3.37-7.35-3.37c-2.86,0-5.19,1-6.98,3
		c-1.8,2-2.7,4.8-2.7,8.39c0,3.27,0.89,6.02,2.7,8.27c1.79,2.25,5.27,5.25,10.41,9c4.9,3.67,8.59,6.65,11.08,8.94
		c2.49,2.28,4.41,4.8,5.76,7.53c1.34,2.74,2.02,5.98,2.02,9.74c0,6.86-2,12.35-6.01,16.47c-4,4.13-9.23,6.19-15.68,6.19
		C547.69,241.26,542.48,239.24,538.52,235.2z"/>
	<path class="st1" d="M650.15,239.29l-11.26-36.5c-0.08-0.25-0.25-0.37-0.49-0.37h-8.57c-0.32,0-0.49,0.17-0.49,0.49v36.13
		c0,0.82-0.41,1.22-1.22,1.22h-9.31c-0.82,0-1.22-0.4-1.22-1.22v-83.28c0-0.82,0.4-1.23,1.22-1.23h21.92
		c4.16,0,7.84,1.02,11.02,3.06c3.19,2.05,5.65,4.92,7.4,8.63s2.63,7.94,2.63,12.67c0,5.14-1.06,9.62-3.19,13.41
		c-2.13,3.79-5.02,6.55-8.69,8.27c-0.25,0.25-0.32,0.49-0.25,0.74l12.49,37.6l0.12,0.49c0,0.57-0.37,0.86-1.11,0.86h-9.55
		C650.89,240.28,650.4,239.95,650.15,239.29z M629.33,165.21v27.44c0,0.32,0.17,0.49,0.49,0.49h9.06c3.34,0,6.04-1.29,8.09-3.86
		c2.04-2.57,3.06-5.98,3.06-10.22c0-4.41-1.02-7.9-3.06-10.47s-4.73-3.86-8.09-3.86h-9.06C629.5,164.71,629.33,164.88,629.33,165.21
		z"/>
	<path class="st1" d="M681.2,234.58c-4.04-4.45-6.06-10.3-6.06-17.57v-61.24c0-0.82,0.4-1.23,1.22-1.23h9.31
		c0.82,0,1.22,0.41,1.22,1.23v62.45c0,3.84,0.96,6.95,2.87,9.31c1.91,2.37,4.43,3.56,7.53,3.56c3.19,0,5.74-1.19,7.65-3.56
		c1.91-2.37,2.87-5.47,2.87-9.31v-62.45c0-0.82,0.4-1.23,1.23-1.23h9.31c0.82,0,1.23,0.41,1.23,1.23v61.24
		c0,7.27-2.05,13.13-6.12,17.57c-4.08,4.45-9.47,6.68-16.16,6.68C690.61,241.26,685.24,239.04,681.2,234.58z"/>
	<path class="st1" d="M771.27,154.55h9.18c0.82,0,1.23,0.41,1.23,1.23v83.28c0,0.82-0.41,1.22-1.23,1.22h-10.54
		c-0.66,0-1.11-0.32-1.34-0.98l-20.81-55.97c-0.08-0.17-0.2-0.22-0.37-0.18c-0.17,0.04-0.25,0.15-0.25,0.3l0.12,55.6
		c0,0.82-0.41,1.22-1.22,1.22h-9.31c-0.82,0-1.22-0.4-1.22-1.22v-83.28c0-0.82,0.4-1.23,1.22-1.23h10.41c0.65,0,1.11,0.32,1.34,0.98
		l20.94,55.97c0.08,0.25,0.2,0.35,0.37,0.3s0.25-0.18,0.25-0.43v-55.6C770.05,154.96,770.46,154.55,771.27,154.55z"/>
	<path class="st1" d="M839.36,164.71H811.8c-0.32,0-0.49,0.17-0.49,0.49v26.57c0,0.32,0.17,0.49,0.49,0.49h16.9
		c0.82,0,1.23,0.41,1.23,1.22v7.72c0,0.82-0.41,1.22-1.23,1.22h-16.9c-0.32,0-0.49,0.17-0.49,0.49v26.7c0,0.32,0.17,0.49,0.49,0.49
		h27.56c0.82,0,1.22,0.41,1.22,1.23v7.72c0,0.82-0.41,1.22-1.22,1.22h-38.58c-0.82,0-1.23-0.4-1.23-1.22v-83.28
		c0-0.82,0.4-1.23,1.23-1.23h38.58c0.82,0,1.22,0.41,1.22,1.23v7.72C840.58,164.31,840.18,164.71,839.36,164.71z"/>
</g>
<g>
	<path class="st1" d="M422.36,261.88c2.13,0,3.81,0.43,5.08,1.29c1.25,0.86,1.89,2.14,1.89,3.84c0,1.25-0.31,2.3-0.93,3.14
		c-0.62,0.84-1.47,1.47-2.53,1.89c-1.06,0.41-2.28,0.63-3.65,0.63l-0.64-2.16c1.68,0,3.18,0.23,4.47,0.69
		c1.31,0.46,2.34,1.12,3.09,1.98c0.76,0.86,1.14,1.89,1.14,3.09c0,1.11-0.2,2.05-0.59,2.82c-0.4,0.77-0.93,1.39-1.61,1.86
		c-0.67,0.47-1.44,0.82-2.29,1.03c-0.85,0.21-1.73,0.31-2.64,0.31h-6.79v-20.41h5.99L422.36,261.88L422.36,261.88z M422.83,270.22
		c0.79,0,1.39-0.23,1.76-0.73c0.38-0.48,0.57-1.03,0.57-1.63c0-0.7-0.23-1.23-0.7-1.58c-0.47-0.35-1.11-0.53-1.9-0.53h-2.16v4.46
		H422.83z M422.97,278.54c0.59,0,1.13-0.08,1.61-0.23c0.48-0.16,0.86-0.4,1.14-0.75c0.28-0.35,0.41-0.77,0.41-1.29
		c0-0.59-0.17-1.04-0.5-1.34c-0.34-0.3-0.76-0.51-1.29-0.64c-0.53-0.12-1.07-0.18-1.66-0.18h-2.3v4.44L422.97,278.54L422.97,278.54z
		"/>
	<path class="st1" d="M438.17,272.11c0-1.41,0.27-2.74,0.81-3.99c0.54-1.25,1.28-2.37,2.24-3.34c0.95-0.97,2.06-1.73,3.31-2.29
		c1.25-0.56,2.61-0.83,4.05-0.83c1.42,0,2.76,0.28,4.03,0.83c1.25,0.56,2.37,1.32,3.34,2.29s1.73,2.08,2.27,3.34
		c0.55,1.25,0.82,2.58,0.82,3.99c0,1.44-0.27,2.8-0.82,4.05s-1.31,2.36-2.27,3.31c-0.97,0.95-2.08,1.7-3.34,2.24
		c-1.25,0.54-2.59,0.81-4.03,0.81c-1.44,0-2.8-0.27-4.05-0.81c-1.25-0.54-2.36-1.28-3.31-2.24c-0.95-0.95-1.7-2.06-2.24-3.31
		C438.44,274.9,438.17,273.55,438.17,272.11z M442.33,272.11c0,0.91,0.16,1.76,0.48,2.54c0.32,0.78,0.77,1.48,1.35,2.08
		c0.58,0.6,1.25,1.06,2.02,1.4c0.77,0.34,1.6,0.5,2.51,0.5c0.87,0,1.68-0.17,2.43-0.5c0.75-0.34,1.4-0.79,1.96-1.4
		s0.98-1.3,1.31-2.08c0.31-0.78,0.47-1.63,0.47-2.54c0-0.93-0.16-1.79-0.48-2.58c-0.32-0.79-0.77-1.49-1.33-2.09
		c-0.56-0.6-1.23-1.06-1.98-1.4c-0.76-0.34-1.58-0.5-2.47-0.5c-0.88,0-1.71,0.17-2.47,0.5c-0.76,0.34-1.42,0.81-2,1.4
		c-0.57,0.6-1.02,1.3-1.33,2.09C442.48,270.32,442.33,271.18,442.33,272.11z"/>
	<path class="st1" d="M466.07,261.88h13.76v3.88h-4.97v16.53h-4.03v-16.53h-4.78v-3.88H466.07z"/>
	<path class="st1" d="M487.42,261.88h13.76v3.88h-4.97v16.53h-4.03v-16.53h-4.78v-3.88H487.42z"/>
	<path class="st1" d="M510.16,261.88h4.03v16.53h9.6v3.88h-13.61v-20.41H510.16z"/>
	<path class="st1" d="M532.78,261.88h13.92v3.88h-9.9v4.35h8.77v3.88h-8.77v4.41h10.29v3.88h-14.31v-20.4L532.78,261.88
		L532.78,261.88z"/>
	<path class="st1" d="M567.64,266.81c-0.77-0.43-1.57-0.77-2.37-1.05c-0.81-0.28-1.55-0.41-2.26-0.41c-0.87,0-1.55,0.18-2.05,0.53
		c-0.5,0.35-0.75,0.88-0.75,1.58c0,0.48,0.19,0.91,0.57,1.29c0.38,0.38,0.87,0.72,1.47,1.01c0.6,0.29,1.22,0.56,1.87,0.81
		c0.59,0.22,1.17,0.48,1.76,0.79c0.58,0.3,1.11,0.68,1.57,1.14c0.46,0.45,0.83,1.02,1.11,1.69c0.28,0.67,0.41,1.5,0.41,2.48
		c0,1.04-0.27,2-0.81,2.89c-0.54,0.88-1.32,1.6-2.36,2.15c-1.04,0.55-2.32,0.82-3.83,0.82c-0.77,0-1.57-0.08-2.37-0.23
		c-0.81-0.16-1.6-0.4-2.37-0.73c-0.77-0.32-1.52-0.74-2.25-1.23l1.78-3.13c0.48,0.35,1.01,0.66,1.57,0.93
		c0.56,0.27,1.13,0.48,1.7,0.63c0.57,0.15,1.1,0.22,1.58,0.22c0.48,0,0.96-0.07,1.45-0.21c0.49-0.13,0.89-0.37,1.22-0.7
		c0.32-0.34,0.48-0.79,0.48-1.39c0-0.4-0.13-0.77-0.4-1.11c-0.27-0.34-0.63-0.64-1.08-0.92c-0.46-0.28-0.95-0.51-1.49-0.72
		c-0.63-0.23-1.28-0.51-1.95-0.83s-1.29-0.69-1.87-1.15c-0.58-0.46-1.05-1.02-1.41-1.69s-0.54-1.5-0.54-2.48
		c0-1.19,0.27-2.21,0.79-3.08c0.53-0.87,1.28-1.55,2.24-2.07c0.96-0.5,2.07-0.79,3.33-0.85c1.64,0,2.99,0.19,4,0.58
		c1.03,0.39,1.95,0.85,2.76,1.39L567.64,266.81z"/>
	<path class="st1" d="M595.19,261.88v20.41h-4.03V274h-9.13v8.29h-4.03v-20.41h4.03v8.23h9.13v-8.23H595.19z"/>
	<path class="st1" d="M604.3,272.11c0-1.41,0.27-2.74,0.81-3.99c0.54-1.25,1.28-2.37,2.24-3.34c0.95-0.97,2.06-1.73,3.31-2.29
		c1.25-0.56,2.61-0.83,4.05-0.83c1.42,0,2.76,0.28,4.03,0.83c1.25,0.56,2.37,1.32,3.34,2.29c0.97,0.97,1.73,2.08,2.27,3.34
		c0.55,1.25,0.82,2.58,0.82,3.99c0,1.44-0.27,2.8-0.82,4.05c-0.55,1.25-1.31,2.36-2.27,3.31c-0.97,0.95-2.08,1.7-3.34,2.24
		c-1.25,0.54-2.59,0.81-4.03,0.81c-1.44,0-2.8-0.27-4.05-0.81c-1.25-0.54-2.36-1.28-3.31-2.24c-0.95-0.95-1.7-2.06-2.24-3.31
		C604.57,274.9,604.3,273.55,604.3,272.11z M608.46,272.11c0,0.91,0.16,1.76,0.48,2.54c0.32,0.78,0.77,1.48,1.35,2.08
		c0.58,0.6,1.25,1.06,2.02,1.4c0.77,0.34,1.6,0.5,2.51,0.5c0.87,0,1.68-0.17,2.43-0.5s1.4-0.79,1.96-1.4
		c0.56-0.6,0.98-1.3,1.31-2.08c0.31-0.78,0.47-1.63,0.47-2.54c0-0.93-0.16-1.79-0.48-2.58c-0.32-0.79-0.77-1.49-1.33-2.09
		c-0.56-0.6-1.23-1.06-1.98-1.4c-0.76-0.34-1.58-0.5-2.47-0.5c-0.88,0-1.71,0.17-2.47,0.5c-0.76,0.34-1.42,0.81-2,1.4
		c-0.57,0.6-1.02,1.3-1.33,2.09C608.62,270.32,608.46,271.18,608.46,272.11z"/>
	<path class="st1" d="M640.47,261.88c1.68,0,3.11,0.28,4.27,0.85c1.16,0.56,2.05,1.36,2.66,2.38c0.62,1.03,0.92,2.24,0.92,3.65
		c0,0.83-0.12,1.67-0.37,2.51s-0.65,1.6-1.2,2.29c-0.55,0.68-1.28,1.23-2.19,1.66c-0.92,0.41-2.04,0.63-3.37,0.63h-2.89v6.46h-4.03
		v-20.41h6.19V261.88L640.47,261.88z M641.17,271.91c0.62,0,1.12-0.1,1.52-0.31c0.4-0.21,0.73-0.48,0.96-0.81
		c0.23-0.32,0.4-0.66,0.5-1.02c0.1-0.35,0.16-0.66,0.16-0.92c0-0.2-0.03-0.48-0.1-0.82c-0.07-0.35-0.2-0.69-0.4-1.04
		c-0.2-0.35-0.51-0.65-0.93-0.88s-0.97-0.36-1.68-0.36h-2.89v6.15L641.17,271.91L641.17,271.91z"/>
</g>
<g>
	<circle class="st2" cx="267.6" cy="201.1" r="93.66"/>
	<g>
		<g>
			<g>
				<defs>
					<circle id="SVGID_1_" cx="267.6" cy="201.1" r="82.11"/>
				</defs>
				<clipPath id="SVGID_00000151528129710735393920000016186576846072355211_">
					<use xlink:href="#SVGID_1_"  style="overflow:visible;"/>
				</clipPath>
				<g style="clip-path:url(#SVGID_00000151528129710735393920000016186576846072355211_);">
					<g>
						
							<rect x="293.74" y="32.17" transform="matrix(0.2988 -0.9543 0.9543 0.2988 82.8627 373.8531)" class="st4" width="4.2" height="196.75"/>
					</g>
					<g>
						
							<rect x="287.06" y="51.99" transform="matrix(0.2988 -0.9543 0.9543 0.2988 59.5974 381.834)" class="st4" width="5.15" height="196.75"/>
					</g>
					<g>
						
							<rect x="280.38" y="71.8" transform="matrix(0.2988 -0.9543 0.9543 0.2988 36.3433 389.8111)" class="st4" width="6.1" height="196.75"/>
					</g>
					<g>
						
							<rect x="273.7" y="91.63" transform="matrix(0.2988 -0.9543 0.9543 0.2988 13.0632 397.7823)" class="st4" width="7.04" height="196.75"/>
					</g>
					<g>
						
							<rect x="267.03" y="111.43" transform="matrix(0.2988 -0.9543 0.9543 0.2988 -10.1834 405.756)" class="st4" width="7.99" height="196.75"/>
					</g>
					<g>
						
							<rect x="260.35" y="131.26" transform="matrix(0.2988 -0.9543 0.9543 0.2988 -33.4487 413.7369)" class="st4" width="8.94" height="196.75"/>
					</g>
					<g>
						
							<rect x="253.67" y="151.07" transform="matrix(0.2988 -0.9543 0.9543 0.2988 -56.7062 421.7063)" class="st4" width="9.89" height="196.75"/>
					</g>
					<g>
						
							<rect x="246.98" y="170.89" transform="matrix(0.2988 -0.9543 0.9543 0.2988 -79.9754 429.6762)" class="st4" width="10.84" height="196.75"/>
					</g>
				</g>
			</g>
		</g>
	</g>
	<g>
		<path class="st2" d="M272.55,305.83c-2.23,7.61-19.4,9.01-38.34,3.06s-32.24-16.91-29.73-24.44c2.49-7.46,19.61-8.72,38.27-2.86
			C261.4,287.45,274.75,298.28,272.55,305.83z"/>
		<path class="st4" d="M308.78,177.55c-2.04-11.7-4.96-13.57-1.75-27.24c3.21-13.66,7.99-47.39,7.99-47.39s1.08-5.05,1.94-6.18
			c0.85-1.13,1.96,0.11,2.2-3.37c0.23-3.48,0.45-8.49,0.45-8.49s0.72-1.17,1.94-1.42s0.67-2.83-1.71-4.34s-12.16-4.64-12.16-4.64
			s-9.82-3.02-12.63-3.14s-4.73,1.68-3.88,2.59c0.86,0.9,0.78,2.28,0.78,2.28s-2.68,4.23-4.47,7.22s-0.18,2.61-0.12,4.02
			c0.06,1.41-1.94,6.18-1.94,6.18s-15.31,30.41-20.48,43.46c-5.16,13.05-10.13,13.82-16.97,21.35
			c-8.74,6.02-11.68,23.31-11.68,23.31s-21.23,76.08-25.52,83.62c-4.29,7.54-4.14,15.76-4.14,15.76
			c1.57,11.92,29.71,20.9,29.71,20.9s28.26,8.78,36.34-0.1c0,0,4.82-6.66,5.59-15.3c0.78-8.64,26.78-83.25,26.78-83.25
			S312.52,187.5,308.78,177.55z"/>
		<path class="st5" d="M310.19,88.63c0,0-0.69,6.24-1.83,9.93c-1.14,3.7-12.65,62.43-12.65,62.43s-2.74,31.01-4.93,34.65
			c-2.2,3.66,10.86,4.07,10.86,4.07s5.47-32.05,4.24-34.9c-1.22-2.84,9.28-68.69,9.28-68.69l2.96-1.47l0.74-5.49L310.19,88.63z"/>
		<path class="st5" d="M300.77,196.98c-0.9-0.31-1.69-2.99-2.59-3.29c-11.23-3.77-24.09-1.43-35.29-5.37
			c-5.67-1.99-9.27,2.09-14.86-0.17c-0.99-0.4-4.04-6.94-5.05-7.35c-0.27,1.14-0.4,1.82-0.4,1.82s-20.82,73.44-24.71,80.79
			c-3.89,7.35-4.09,15.17-4.09,15.17c0.84,11.28,24.8,16.34,24.8,16.34s22.54,9.59,29.67,0.81c0,0,4.3-6.53,5.3-14.79
			C274.56,272.83,299.95,199.38,300.77,196.98z"/>
		<path class="st5" d="M293.5,195.31c0,0,2.65-6.09,0.99-9.21c-1.66-3.11-1.72-5.07-0.36-7.09c1.35-2.02,4.64-2.73,4.22-7.24
			c-0.42-4.49-0.09-8.37,0.65-9.85c0.73-1.48,4.49-2.01,5.67,0.06c1.18,2.08,7.33,18.39,4.86,26.38
			c-2.49,8.06-5.63,15.09-5.63,15.09L293.5,195.31z"/>
		<path class="st5" d="M316.96,96.75c0,0-25.99-5.43-28.77-7.6c-2.77-2.16,3.02-13.5,4.74-14.57s26.73,8.19,26.73,8.19
			S320.74,93.28,316.96,96.75z"/>
		<path class="st6" d="M299.73,160.43c0,0-20.09,4.79-34.8-10.91"/>
		<path class="st6" d="M316.96,96.75c0,0-11.81,2.55-28.77-7.6"/>
		<g>
			<g>
				<path class="st4" d="M236.04,214.74c-0.01,0.02-0.01,0.05-0.02,0.07c-0.31,1.21,0.02,2.49,0.88,3.33
					c12.64,12.36,29.5,17.65,46.92,14.74c1.18-0.2,2.18-1.06,2.62-2.23c0.01-0.02,0.02-0.05,0.03-0.07
					c0.87-2.32-0.82-4.71-3.17-4.43c-15.52,1.84-30.43-2.85-42.12-13.23C239.4,211.34,236.65,212.33,236.04,214.74z"/>
				<path class="st4" d="M229.64,238.66c-0.08,0.29-0.15,0.57-0.23,0.86c-0.31,1.18,0.03,2.45,0.9,3.27
					c12.25,11.5,28.26,16.53,44.87,14.12c1.18-0.17,2.18-1.02,2.6-2.17c0.1-0.28,0.21-0.56,0.31-0.84c0.82-2.22-0.83-4.5-3.11-4.27
					c-14.83,1.48-29.02-2.99-40.35-12.69C232.88,235.44,230.23,236.37,229.64,238.66z"/>
				<path class="st4" d="M224.12,265.17c11.93,10.88,27.36,15.74,43.36,13.66c1.21-0.16,2.24-1,2.63-2.17
					c0.17-0.5,0.34-1.01,0.51-1.51c0.73-2.12-0.88-4.28-3.08-4.09c-14.31,1.24-28.02-3.08-39.05-12.29
					c-1.7-1.42-4.24-0.57-4.86,1.59c-0.15,0.51-0.29,1.02-0.44,1.52C222.85,263.07,223.22,264.35,224.12,265.17z"/>
			</g>
		</g>
		<path class="st7" d="M308.78,177.55c-2.04-11.7-4.96-13.57-1.75-27.24c3.21-13.66,7.99-47.39,7.99-47.39s1.08-5.05,1.94-6.18
			c0.85-1.13,1.96,0.11,2.2-3.37c0.23-3.48,0.45-8.49,0.45-8.49s0.72-1.17,1.94-1.42s0.67-2.83-1.71-4.34s-12.16-4.64-12.16-4.64
			s-9.82-3.02-12.63-3.14s-4.73,1.68-3.88,2.59c0.86,0.9,0.78,2.28,0.78,2.28s-2.68,4.23-4.47,7.22s-0.18,2.61-0.12,4.02
			c0.06,1.41-1.94,6.18-1.94,6.18s-15.31,30.41-20.48,43.46c-5.16,13.05-10.13,13.82-16.97,21.35
			c-8.74,6.02-11.68,23.31-11.68,23.31s-21.23,76.08-25.52,83.62c-4.29,7.54-4.14,15.76-4.14,15.76
			c1.57,11.92,29.71,20.9,29.71,20.9s28.26,8.78,36.34-0.1c0,0,4.82-6.66,5.59-15.3c0.78-8.64,26.78-83.25,26.78-83.25
			S312.52,187.5,308.78,177.55z"/>
		<path class="st5" d="M288.76,103.26c0,0-16.48,41.07-18.13,41.6c-1.64,0.53-3.3-1.81-3.3-1.81l18.93-41.14L288.76,103.26z"/>
		<path class="st4" d="M294.63,167.51c0,0,3.14,7.93,2.53,14.01c-0.62,6.12-3.43,14.35-5.2,10.28c-1.76-4.06-0.93-5.23-0.19-9.27
			C292.5,178.5,291.4,165.48,294.63,167.51z"/>
		<path class="st1" d="M210.1,287.13c-2.41-1.71-4.55-2.93-5.63-2.67c-2.96,0.7-0.6,3.58,0.51,6.77c0.25,0.72,1.59,1.16,2.94,2.5
			C208.62,291.52,209.36,289.32,210.1,287.13z"/>
		<path class="st5" d="M241.19,187.56l1.97-7.59c0.91-3.51,4.63-5.42,7.67-3.95c10.46,5.06,32.64,14.4,47.27,10.79l-10.66,23.24
			L241.19,187.56z"/>
		<path class="st4" d="M244.39,192.6c-0.01,0.02-0.01,0.05-0.02,0.07c-0.3,1.18,0.03,2.44,0.88,3.25
			c12.52,12.11,29.17,17.34,46.35,14.56c1.16-0.19,2.15-1.03,2.57-2.17c0.01-0.02,0.02-0.05,0.03-0.07c0.85-2.27-0.6-7.39-2.92-7.13
			c-15.29,1.73-29.99-2.89-41.55-13.05C247.98,186.53,244.98,190.25,244.39,192.6z"/>
		<g>
			<path class="st2" d="M322.09,81.82c0.59-1.96-5.94-5.74-14.57-8.44c-8.64-2.71-16.15-3.33-16.78-1.38l-2.16,3.69
				c-1.01,1.72-0.56,3.92,1.02,5.01c4.72,3.26,15.22,9.11,28.96,8.43c1.97-0.1,3.56-1.81,3.55-3.86L322.09,81.82z"/>
		</g>
		
			<ellipse transform="matrix(0.2929 -0.9561 0.9561 0.2929 142.4619 347.6457)" class="st4" cx="306.28" cy="77.5" rx="1.67" ry="13.9"/>
		<g>
			<path class="st1" d="M290.28,79.06c0,0,2.6-2.5,4.33-0.57c1.73,1.94,0.42,5.45,0.42,5.45S290.12,80.35,290.28,79.06z"/>
			<path class="st1" d="M295.6,82.08c0,0,2.6-2.5,4.33-0.57c1.73,1.94,0.42,5.45,0.42,5.45S295.45,83.38,295.6,82.08z"/>
			<path class="st1" d="M319.31,88.01c0,0-0.75-3.53-3.27-2.9s-3.4,4.28-3.4,4.28S318.71,89.17,319.31,88.01z"/>
			<path class="st1" d="M313.21,87.53c0,0-0.75-3.53-3.27-2.9s-3.4,4.28-3.4,4.28S312.61,88.7,313.21,87.53z"/>
			<path class="st1" d="M301.68,84.35c0,0,2.6-2.5,4.33-0.57c1.73,1.94,0.42,5.45,0.42,5.45S301.53,85.65,301.68,84.35z"/>
		</g>
		<path class="st1" d="M288.7,87.9c0,0,5.19,2.77,5.58,3.47c0.39,0.71-1.2,2.78-6.67,0.56C282.14,89.7,288.7,87.9,288.7,87.9z"/>
		<path class="st1" d="M317.78,94.59c0,0-4.47,3.24-13.92-0.82c0,0-2.1,1.01-0.91,2.96c1.59,2.61,9.75,4.28,13.14,3.67
			C319.49,99.8,317.78,94.59,317.78,94.59z"/>
	</g>
	
		<ellipse transform="matrix(0.2929 -0.9561 0.9561 0.2929 -110.5513 436.5031)" class="st4" cx="239.85" cy="293" rx="4.08" ry="21.3"/>
</g>
</svg>
